<svg xmlns="http://www.w3.org/2000/svg" viewBox="0 0 24 24" width="24" height="24">
  <defs>
    <linearGradient id="flameGrad" x1="0%" y1="100%" x2="0%" y2="0%">
      <stop offset="0%" stop-color="#fbbf24" />
      <stop offset="50%" stop-color="#e63946" />
      <stop offset="100%" stop-color="#a33240" />
    </linearGradient>
  </defs>
  <path fill="url(#flameGrad)" d="M11.7.3c-.2 0-.3.1-.3.3 0 .7-.1 1.5-.2 2.3-.3 2.1-1.3 4-2.8 5.6-1.5 1.6-3.4 2.8-5.5 3.5-.2.1-.3.3-.2.4.1.2.3.2.4.2 2.1-.6 4-1.8 5.4-3.4.1-.1.2-.1.3-.1.1 0 .2.1.2.2-.1 1-.1 2 .1 2.9.2 1.3.8 2.5 1.7 3.5.1.1.2.2.3.1.1-.1.1-.2.1-.3-.2-1.3-.1-2.6.4-3.8.4-.9 1-1.8 1.8-2.6.1-.1.2-.2.3-.1.1.1.1.2 0 .3-.7.9-1.2 1.9-1.4 3-.2 1.1-.1 2.2.3 3.3.1.2.3.2.4.1 1.7-1.1 2.8-2.9 3-5 .2-2.1-.5-4.2-1.9-5.7-.1-.1-.1-.3 0-.4.1-.1.3-.1.4 0 1.6 1.7 2.4 3.9 2.2 6.2-.2 2.3-1.4 4.3-3.3 5.5-.2.1-.2.3-.1.4.6.4 1.3.5 2 .5 1.1 0 2.2-.4 3.1-1.1.2-.2.4-.2.5 0 .1.2 0 .4-.2.5-1 1-2.4 1.5-3.8 1.5-1-.1-2-.4-2.8-.9-1.5-1-2.6-2.5-3-4.3-.4-1.7-.1-3.6.8-5.1.1-.2.1-.4 0-.5-.1-.1-.3-.1-.4.1-.8 1.2-1.3 2.6-1.3 4.1 0 1.2.3 2.4.9 3.5.1.2.3.3.5.2.2-.1.2-.2.2-.4-.3-.8-.4-1.7-.3-2.5.2-1.1.7-2.1 1.4-2.9 1.1-1.3 2.6-2.2 4.2-2.6.2-.1.3-.3.2-.5-.1-.2-.3-.3-.5-.2-1.8.4-3.4 1.4-4.6 2.8-.8 1-1.4 2.3-1.6 3.6-.2 1.3.1 2.6.7 3.8.1.2 0 .4-.2.5-.9.4-1.9.6-2.9.5-1.5-.1-2.9-.8-3.9-1.9-.2-.2-.4-.1-.5.1 0 .2 0 .3.1.5 1.1 1.2 2.6 1.8 4.2 1.9h.2c.4 0 .9-.1 1.3-.2.2-.1.2-.3.1-.4-.2-.3-.3-.5-.4-.8-.4-1.2-.5-2.5-.2-3.8.3-1.2.8-2.3 1.6-3.2.1-.1.2-.3.1-.4-.1-.1-.3-.1-.4 0-.9 1-1.5 2.3-1.7 3.6-.2 1.3.1 2.6.7 3.8.1.1.2.2.3.1.2-.1.2-.2.1-.4-.4-.9-.6-1.9-.5-2.8.1-1 .4-1.9.8-2.8.4-.9 1-1.6 1.8-2.2.2-.1.2-.3.1-.4-.1-.1-.3 0-.4.1-.8.7-1.4 1.5-1.9 2.5-.4 1-.6 2.1-.7 3.2-.1 1.3.2 2.6.8 3.7.1.2.1.4-.1.5-.9.4-2 .5-3 .1-1.8-.7-3.2-2.1-4-3.9-.2-.4-.3-.8-.3-1.2 0-.2-.2-.2-.4-.1-.1.1-.1.3 0 .4.1.5.2 1 .3 1.4.9 2 2.4 3.5 4.3 4.3 1 .4 2.1.5 3.2.3.2 0 .3-.2.2-.3-.1-.1-.3-.2-.4-.2-.8-.2-1.5-.8-1.9-1.5-.5-.8-.7-1.8-.5-2.7.2-.9.7-1.7 1.4-2.3 1-.9 2.2-1.4 3.5-1.6.2 0 .3-.2.2-.4-.1-.2-.2-.2-.4-.2-1.4.2-2.7.8-3.7 1.7-.8.7-1.4 1.6-1.6 2.6-.2 1 .1 2 .6 2.9.5.8 1.3 1.4 2.2 1.6.2 0 .4.1.6.1 1.8.1 3.5-.8 4.5-2.3 1-1.5 1.3-3.4.8-5.1-.4-1.8-1.5-3.3-3-4.3-.9-.6-2-1-3.1-1-1.2.1-2.4.6-3.3 1.3-.2.1-.4.1-.4-.1 0-.1.1-.3.2-.4 1-1 2.3-1.6 3.7-1.7 1.2-.1 2.4.3 3.4.9 1.6 1 2.8 2.6 3.3 4.5.4 1.8.1 3.8-1 5.3-1.1 1.6-2.9 2.6-4.9 2.5-1 0-2-.3-2.8-.9-.2-.1-.4 0-.4.2 0 .1.1.2.1.3.9.7 2 1 3.1.9 2.1-.1 4-1.2 5.1-3 1.2-1.7 1.5-3.8 1-5.7-.5-2-1.8-3.7-3.5-4.8 0 0 .1-.5-.1-.5z" />
</svg>
